<?xml version="1.0" encoding="UTF-8"?>
<svg id="Layer_1" xmlns="http://www.w3.org/2000/svg" version="1.1" viewBox="25 208 452 201">
  <!-- Generator: Adobe Illustrator 29.3.1, SVG Export Plug-In . SVG Version: 2.1.0 Build 151)  -->
  <defs>
    <style>
      .st0 {
        fill: #1275bc;
      }

      .st1 {
        fill: #231f20;
      }

      .st2 {
        fill: #fff;
      }

      .st3 {
        fill: #58595b;
      }
    </style>
  </defs>
  <g>
    <path class="st0" d="M146.2,246.62c-2.15-1.57-4.1-3.3-5.85-5.19-1.75-1.89-3.17-3.98-4.28-6.27-1.24,2.45-2.75,4.71-4.53,6.78s-3.7,3.84-5.75,5.31l-3.77-4.01c1.86-1.3,3.53-2.77,5.02-4.41,1.48-1.63,2.72-3.43,3.7-5.38.42-.85.78-1.7,1.05-2.55.28-.85.5-1.7.66-2.54.13-.85.24-1.86.34-3.04.1-1.17.15-2.22.15-3.13h-8.03v-5.19h22.61v5.19h-8.47c0,.46,0,.95.02,1.49.02.54.04,1.09.07,1.66.03.57.08,1.13.15,1.66.06.54.15,1,.24,1.4.29,1.6.86,3.26,1.71,4.99,1.01,1.96,2.24,3.7,3.7,5.24,1.45,1.53,3.06,2.9,4.82,4.11l-3.57,3.87ZM152.95,212.9h5.87v46.01h-5.87v-46.01Z"/>
    <path class="st0" d="M182.61,218.97c0,1.34.2,2.64.59,3.92.39,1.34,1.03,2.61,1.91,3.82.88,1.27,2.02,2.46,3.43,3.57.69.59,1.45,1.14,2.3,1.66s1.78,1.03,2.79,1.52l-1.96,1.86-2.01,1.96c-2.45-1.14-4.45-2.43-6.02-3.87-1.83-1.53-3.15-3.18-3.96-4.94-1.86,3.98-5.25,7.24-10.18,9.79-.69-.62-1.34-1.27-1.96-1.96-.36-.29-.69-.59-1-.91-.31-.31-.63-.63-.95-.95.98-.55,1.88-1.13,2.72-1.71.83-.59,1.61-1.21,2.32-1.86.72-.62,1.35-1.26,1.91-1.91.55-.65,1.04-1.31,1.47-1.96.46-.65.84-1.31,1.15-1.98.31-.67.58-1.35.81-2.03.39-1.3.59-2.64.59-4.01v-4.99h6.07v4.99ZM203.17,257.68h-22.47c-1.96,0-3.53-.42-4.72-1.26-1.19-.84-1.79-2.09-1.79-3.73v-10.67h5.87v9.1c0,.91.47,1.37,1.42,1.37h21.68v5.19ZM202.44,230.08v12.68h-5.87v-29.86h5.87v11.99h6.85v5.19h-6.85Z"/>
    <path class="st1" d="M235.33,228.81v5.68h17.96v5.19h-41.75v-5.19h17.92v-5.68h5.87ZM250.7,226.51c-.26.36-.52.69-.78,1-.26.31-.52.65-.78,1l-1.52,2.01c-3.88-.69-7.1-1.71-9.64-3.08-2.58-1.37-4.44-3.07-5.58-5.09-1.37,2.12-3.28,3.82-5.73,5.09-2.45,1.37-5.63,2.4-9.54,3.08l-1.47-2.01c-.26-.36-.52-.69-.78-1-.26-.31-.52-.64-.78-1,2.28-.39,4.44-1.01,6.46-1.86,1.86-.78,3.46-1.7,4.8-2.74,1.21-.95,2.19-2.01,2.94-3.18.69-1.08,1.03-2.15,1.03-3.23v-2.25h6.12v2.25c0,1.08.34,2.15,1.03,3.23.68,1.24,1.68,2.32,2.99,3.23,1.21.98,2.81,1.88,4.8,2.69,1.96.85,4.11,1.47,6.46,1.86ZM247.81,257.68h-23.3c-1.96,0-3.53-.42-4.72-1.26-1.19-.84-1.79-2.09-1.79-3.73v-9.89h5.87v8.32c0,.91.47,1.37,1.42,1.37h22.52v5.19Z"/>
    <path class="st1" d="M257.26,224.11v-5.09h7.83v-6.02h5.87v6.02h7.78v5.09h-21.49ZM278.4,237.08c0,1.5-.27,2.88-.81,4.14-.54,1.26-1.27,2.35-2.2,3.28-.93.93-2.03,1.66-3.3,2.18-1.27.52-2.64.78-4.11.78s-2.84-.26-4.11-.78c-1.27-.52-2.37-1.25-3.3-2.18-.93-.93-1.66-2.02-2.2-3.28-.54-1.26-.81-2.63-.81-4.14s.27-2.88.81-4.14c.54-1.26,1.27-2.35,2.2-3.28s2.03-1.66,3.3-2.18c1.27-.52,2.64-.78,4.11-.78s2.84.26,4.11.78c1.27.52,2.37,1.25,3.3,2.18.93.93,1.66,2.02,2.2,3.28.54,1.26.81,2.64.81,4.14ZM272.73,237.08c0-.72-.11-1.4-.32-2.06-.21-.65-.51-1.23-.91-1.74-.39-.51-.88-.91-1.47-1.2-.59-.29-1.27-.44-2.06-.44s-1.47.15-2.06.44-1.08.69-1.47,1.2c-.39.51-.69,1.09-.91,1.74-.21.65-.32,1.34-.32,2.06s.1,1.4.29,2.06c.2.65.5,1.23.91,1.74.41.51.91.91,1.49,1.2.59.29,1.27.44,2.06.44s1.47-.15,2.06-.44,1.08-.69,1.47-1.2c.39-.51.69-1.08.91-1.74.21-.65.32-1.34.32-2.06ZM286.68,257.44h-5.68v-44.05h5.68v16.2h3.72v-16.69h5.78v46.01h-5.78v-24.13h-3.72v22.66Z"/>
    <path class="st1" d="M324.71,246.18c-2.15-1.57-4.08-3.3-5.78-5.21-1.7-1.91-3.12-3.99-4.26-6.24-1.14,2.45-2.59,4.65-4.36,6.61-1.76,1.96-3.67,3.74-5.73,5.33l-3.92-3.82c1.86-1.47,3.5-2.94,4.92-4.43,1.42-1.48,2.63-3.17,3.65-5.07.82-1.57,1.41-3.12,1.79-4.67.38-1.55.56-3.17.56-4.87v-7.34h6.12v7.34c0,1.76.2,3.41.59,4.94.39,1.53.98,3.03,1.76,4.5,1.04,1.96,2.29,3.66,3.75,5.12,1.45,1.45,3.06,2.78,4.82,3.99l-3.92,3.82ZM337.04,234.78v24.13h-5.87v-46.01h5.87v16.69h7.34v5.19h-7.34Z"/>
    <path class="st1" d="M347.29,233.41c.72-.42,1.39-.84,2.03-1.25.64-.41,1.23-.84,1.79-1.3,1.21-.98,2.22-1.96,3.04-2.94.42-.52.82-1.08,1.2-1.66.37-.59.74-1.24,1.1-1.96.59-1.27,1.08-2.74,1.47-4.41h-8.32v-5.19h23.19v5.19h-8.31c.2,2.71,1.24,5.06,3.13,7.05,1.86,2.09,4.37,3.92,7.53,5.48l-3.91,3.82c-2.44-1.04-4.46-2.32-6.06-3.82-1.63-1.37-2.92-2.97-3.86-4.8-1.86,3.82-5.22,7.02-10.08,9.59l-1.96-1.91c-.36-.29-.69-.59-1-.91-.31-.31-.63-.64-.95-1ZM384.03,248.8c0,1.53-.33,2.98-.98,4.35-.68,1.27-1.57,2.39-2.64,3.37-.62.46-1.27.86-1.93,1.22-.67.36-1.36.67-2.08.93-1.57.49-3.2.73-4.9.73s-3.33-.25-4.8-.73c-1.53-.52-2.84-1.22-3.92-2.1-1.17-.98-2.07-2.1-2.69-3.37-.65-1.24-.98-2.7-.98-4.4s.33-3.13.98-4.49c.62-1.27,1.52-2.39,2.69-3.37,1.08-.88,2.38-1.58,3.92-2.1,1.47-.49,3.07-.73,4.8-.73s3.33.25,4.9.73c.72.26,1.4.57,2.06.93.65.36,1.29.76,1.91,1.22,1.11.91,2.01,2.04,2.69,3.37.65,1.47.98,2.95.98,4.44ZM378.16,248.8c0-.85-.16-1.62-.49-2.31-.39-.62-.86-1.2-1.41-1.72-.29-.23-.62-.43-.97-.59-.36-.16-.73-.33-1.12-.49-.94-.26-1.8-.39-2.58-.39s-1.66.13-2.54.39c-.91.33-1.61.69-2.1,1.08-.65.56-1.12,1.15-1.42,1.77-.36.69-.54,1.44-.54,2.26,0,.89.18,1.64.54,2.26.33.59.81,1.16,1.46,1.72.29.26.61.47.95.61.34.15.72.3,1.15.47.39.1.79.18,1.19.25.41.07.84.1,1.29.1s.89-.03,1.32-.1c.42-.07.85-.15,1.27-.25.39-.16.76-.32,1.1-.47.34-.15.67-.35,1-.61.55-.46,1.02-1.03,1.41-1.72.33-.62.49-1.38.49-2.26ZM371.01,222.34h7.88v-9.45h5.87v24.18h-5.87v-9.54h-7.88v-5.19Z"/>
    <path class="st1" d="M404.32,235.27c-2.75,0-4.99-.67-6.72-2.01-1.73-1.34-2.6-3.3-2.6-5.87v-13.12h5.87v6.12h10.47v-6.12h5.87v7.34h6.75v-8.71h5.87v23.1h-5.87v-9.2h-6.75v8.47h-12.9ZM411.35,225.38h-10.47v.93c0,.52.07,1.02.2,1.49.13.47.35.9.66,1.27.31.38.73.67,1.27.88.54.21,1.23.32,2.07.32h6.29v-4.89ZM423.98,238.64h5.87v19.29h-22.02c-1.96,0-3.53-.42-4.71-1.27-1.18-.85-1.77-2.11-1.77-3.77v-14.24h5.87v5.14h16.74v-5.14ZM423.98,253.13v-4.55h-16.74v3.18c0,.91.47,1.37,1.42,1.37h15.32Z"/>
    <path class="st1" d="M462.4,225.43c0,1.76-.29,3.35-.88,4.75-.65,1.47-1.49,2.69-2.5,3.67-1.08,1.04-2.3,1.83-3.67,2.35-1.47.56-3,.83-4.6.83s-3.18-.28-4.55-.83c-1.47-.52-2.71-1.32-3.72-2.4-.98-.88-1.79-2.1-2.45-3.67-.59-1.37-.88-2.94-.88-4.7s.29-3.28.88-4.75c.65-1.47,1.47-2.69,2.45-3.67,1.01-.95,2.25-1.73,3.72-2.35,1.47-.55,2.99-.83,4.55-.83s3.04.28,4.6.83c1.37.59,2.59,1.37,3.67,2.35,1.01,1.04,1.84,2.27,2.5,3.67.59,1.47.88,3.05.88,4.75ZM456.53,225.43c0-1.99-.54-3.57-1.61-4.75-1.14-1.11-2.5-1.66-4.09-1.66s-3.04.56-4.14,1.66c-1.11,1.11-1.66,2.69-1.66,4.75s.55,3.67,1.66,4.75c1.07,1.11,2.45,1.66,4.14,1.66,1.59,0,2.94-.55,4.04-1.66,1.1-1.11,1.66-2.69,1.66-4.75ZM474.93,257.68h-22.03c-1.96,0-3.54-.42-4.75-1.26-1.21-.84-1.81-2.09-1.81-3.73v-10.67h5.87v9.1c0,.91.47,1.37,1.42,1.37h21.29v5.19ZM474.59,242.76h-5.87v-29.86h5.87v29.86Z"/>
  </g>
  <g>
    <path class="st3" d="M150.92,269.72v9.28c0,.59-.09,1.13-.27,1.63-.18.5-.44.93-.79,1.3-.34.37-.77.65-1.29.86s-1.11.3-1.79.3c-.71,0-1.34-.13-1.9-.4-.55-.27-1.03-.6-1.42-.99l1.17-1.49c.24.25.54.48.92.7.38.22.79.33,1.23.33.37,0,.69-.06.94-.19s.46-.29.63-.49c.16-.2.28-.44.35-.71.07-.27.1-.55.1-.85v-9.28h2.12Z"/>
    <path class="st3" d="M155.85,282.91h-2.08v-13.19h2.08v13.19Z"/>
    <path class="st3" d="M163.39,269.46c.93,0,1.73.16,2.42.47.69.32,1.28.89,1.76,1.71l-1.54,1.15c-.37-.47-.76-.84-1.17-1.11-.41-.27-.9-.4-1.47-.4-.71,0-1.29.15-1.74.45-.45.3-.67.7-.67,1.21,0,.29.05.54.15.74.1.2.25.36.45.5.2.14.43.25.71.36s.59.2.94.3c.33.1.61.19.86.27.24.08.51.18.8.3.42.17.82.36,1.21.58.39.21.73.47,1.03.77.29.3.53.65.71,1.07.18.41.27.9.27,1.47,0,.62-.14,1.16-.42,1.63s-.66.85-1.13,1.16c-.47.31-1,.54-1.6.69s-1.21.23-1.85.23c-.95,0-1.83-.21-2.65-.64-.82-.43-1.46-1.03-1.94-1.8l1.46-1.29c.43.53.9.98,1.41,1.35.51.37,1.09.55,1.75.55.81,0,1.46-.15,1.94-.45.48-.3.73-.79.75-1.46,0-.27-.03-.5-.09-.7-.06-.2-.16-.37-.29-.52-.13-.15-.3-.28-.51-.4-.21-.12-.46-.24-.75-.36-.08-.03-.19-.08-.35-.14-.15-.06-.31-.12-.47-.18-.16-.06-.32-.12-.47-.17-.15-.05-.26-.09-.34-.11-.6-.18-1.13-.36-1.59-.55-.46-.19-.85-.42-1.17-.69-.32-.27-.55-.6-.71-1-.16-.39-.24-.9-.24-1.51,0-.55.12-1.05.37-1.48s.58-.8,1-1.09c.42-.29.9-.52,1.45-.68s1.12-.24,1.72-.24Z"/>
    <path class="st3" d="M169.15,282.91l5.06-13.19h1.58l4.98,13.19h-2.1l-1.03-2.86h-5.37l-1.02,2.86h-2.1ZM174.96,272.72l-2.03,5.5h4.06l-2.03-5.5Z"/>
    <path class="st3" d="M192.5,282.91l-7.47-9.18v9.18h-2.1v-13.19h1.39l7.01,8.69v-8.69h2.1v13.19h-.93Z"/>
    <path class="st3" d="M201.84,276.29c0-.94.14-1.82.43-2.64s.71-1.54,1.27-2.15c.56-.61,1.25-1.09,2.07-1.45s1.78-.53,2.86-.53,2.02.16,2.79.47c.78.32,1.5.82,2.15,1.51l-1.25,1.39c-.51-.58-1.06-.98-1.64-1.22-.59-.24-1.27-.36-2.05-.36-.71,0-1.35.12-1.91.35-.56.23-1.03.56-1.41,1s-.67.96-.87,1.58c-.2.62-.3,1.3-.3,2.06s.1,1.46.31,2.07c.21.61.51,1.13.9,1.57.39.43.87.77,1.43,1s1.2.35,1.91.35c.78,0,1.47-.12,2.08-.36s1.17-.64,1.68-1.22l1.25,1.39c-.66.69-1.38,1.19-2.19,1.51s-1.74.47-2.83.47-2.04-.18-2.87-.53c-.83-.36-1.53-.84-2.1-1.45-.57-.61-1-1.33-1.29-2.15-.29-.82-.44-1.71-.44-2.64Z"/>
    <path class="st3" d="M224.11,282.91h-8.21v-13.19h2.12v11.37h6.1v1.83Z"/>
    <path class="st3" d="M225.77,282.91l5.06-13.19h1.58l4.98,13.19h-2.1l-1.03-2.86h-5.37l-1.02,2.86h-2.1ZM231.58,272.72l-2.03,5.5h4.06l-2.03-5.5Z"/>
    <path class="st3" d="M241.81,282.91h-2.08v-13.19h2.08v13.19Z"/>
    <path class="st3" d="M257.93,269.72v13.19h-2.1v-9.35l-4.54,7.42-4.54-7.42v9.35h-2.1v-13.19h1.86l4.78,7.88,4.81-7.88h1.83Z"/>
    <path class="st3" d="M266.16,282.91l5.06-13.19h1.58l4.98,13.19h-2.1l-1.03-2.86h-5.37l-1.02,2.86h-2.1ZM271.97,272.72l-2.03,5.5h4.06l-2.03-5.5Z"/>
    <path class="st3" d="M290.35,276.31c0,1.03-.18,1.95-.53,2.77-.35.82-.82,1.51-1.41,2.08s-1.27,1-2.04,1.3c-.77.3-1.56.46-2.39.46h-4.03v-13.19h4.03c.82,0,1.62.15,2.39.45.77.3,1.45.73,2.04,1.3s1.06,1.26,1.41,2.08c.35.81.53,1.73.53,2.76ZM282.07,271.55v9.54h1.91c.62,0,1.19-.11,1.71-.33.52-.22.97-.54,1.36-.96.38-.42.68-.92.9-1.51.21-.59.32-1.25.32-1.98s-.11-1.39-.32-1.98c-.21-.59-.51-1.09-.9-1.5-.38-.41-.84-.73-1.36-.95-.52-.22-1.09-.33-1.71-.33h-1.91Z"/>
    <path class="st3" d="M298.44,269.72v9.28c0,.59-.09,1.13-.27,1.63-.18.5-.44.93-.79,1.3-.34.37-.77.65-1.29.86s-1.11.3-1.79.3c-.71,0-1.34-.13-1.9-.4-.55-.27-1.03-.6-1.42-.99l1.17-1.49c.24.25.54.48.92.7.38.22.79.33,1.23.33.37,0,.69-.06.94-.19s.46-.29.63-.49c.16-.2.28-.44.35-.71.07-.27.1-.55.1-.85v-9.28h2.12Z"/>
    <path class="st3" d="M310.98,269.72v9.1c0,.67-.14,1.26-.42,1.79-.28.53-.66.97-1.12,1.34-.46.37-.99.65-1.58.85-.59.2-1.2.3-1.82.3s-1.22-.1-1.81-.3c-.59-.2-1.11-.48-1.57-.85-.46-.37-.83-.81-1.11-1.34-.28-.52-.42-1.12-.42-1.79v-9.1h2.12v8.93c0,.41.07.77.21,1.1.14.33.34.6.59.82.25.22.55.39.89.51s.71.18,1.1.18.76-.06,1.11-.18.64-.29.9-.51c.25-.22.45-.49.6-.82.15-.33.22-.7.22-1.1v-8.93h2.12Z"/>
    <path class="st3" d="M318.35,269.46c.93,0,1.73.16,2.42.47.69.32,1.28.89,1.76,1.71l-1.54,1.15c-.37-.47-.76-.84-1.17-1.11-.41-.27-.9-.4-1.47-.4-.71,0-1.29.15-1.74.45-.45.3-.67.7-.67,1.21,0,.29.05.54.15.74.1.2.25.36.45.5.2.14.43.25.71.36s.59.2.94.3c.33.1.61.19.86.27.24.08.51.18.8.3.42.17.82.36,1.21.58.39.21.73.47,1.03.77.29.3.53.65.71,1.07.18.41.27.9.27,1.47,0,.62-.14,1.16-.42,1.63s-.66.85-1.13,1.16c-.47.31-1,.54-1.6.69s-1.21.23-1.85.23c-.95,0-1.83-.21-2.65-.64-.82-.43-1.46-1.03-1.94-1.8l1.46-1.29c.43.53.9.98,1.41,1.35.51.37,1.09.55,1.75.55.81,0,1.46-.15,1.94-.45.48-.3.73-.79.75-1.46,0-.27-.03-.5-.09-.7-.06-.2-.16-.37-.29-.52-.13-.15-.3-.28-.51-.4-.21-.12-.46-.24-.75-.36-.08-.03-.19-.08-.35-.14-.15-.06-.31-.12-.47-.18-.16-.06-.32-.12-.47-.17-.15-.05-.26-.09-.34-.11-.6-.18-1.13-.36-1.59-.55-.46-.19-.85-.42-1.17-.69-.32-.27-.55-.6-.71-1-.16-.39-.24-.9-.24-1.51,0-.55.12-1.05.37-1.48s.58-.8,1-1.09c.42-.29.9-.52,1.45-.68s1.12-.24,1.72-.24Z"/>
    <path class="st3" d="M334.42,269.72v1.83h-3.74v11.37h-2.13v-11.37h-3.76v-1.83h9.64Z"/>
    <path class="st3" d="M349.86,269.72v13.19h-2.1v-9.35l-4.54,7.42-4.54-7.42v9.35h-2.1v-13.19h1.86l4.78,7.88,4.81-7.88h1.83Z"/>
    <path class="st3" d="M360.4,271.55h-5.74v3.66h5.25v1.8h-5.25v4.08h5.94v1.83h-8.06v-13.19h7.86v1.83Z"/>
    <path class="st3" d="M372.51,282.91l-7.47-9.18v9.18h-2.1v-13.19h1.39l7.01,8.69v-8.69h2.1v13.19h-.93Z"/>
    <path class="st3" d="M385.25,269.72v1.83h-3.74v11.37h-2.13v-11.37h-3.76v-1.83h9.64Z"/>
    <path class="st3" d="M392.83,276.29c0-.94.14-1.82.43-2.64s.71-1.54,1.27-2.15c.56-.61,1.25-1.09,2.07-1.45s1.78-.53,2.86-.53,2.02.16,2.79.47c.78.32,1.5.82,2.15,1.51l-1.25,1.39c-.51-.58-1.06-.98-1.64-1.22-.59-.24-1.27-.36-2.05-.36-.71,0-1.35.12-1.91.35-.56.23-1.03.56-1.41,1s-.67.96-.87,1.58c-.2.62-.3,1.3-.3,2.06s.1,1.46.31,2.07c.21.61.51,1.13.9,1.57.39.43.87.77,1.43,1s1.2.35,1.91.35c.78,0,1.47-.12,2.08-.36s1.17-.64,1.68-1.22l1.25,1.39c-.66.69-1.38,1.19-2.19,1.51s-1.74.47-2.83.47-2.04-.18-2.87-.53c-.83-.36-1.53-.84-2.1-1.45-.57-.61-1-1.33-1.29-2.15-.29-.82-.44-1.71-.44-2.64Z"/>
    <path class="st3" d="M416.38,278.36c0,.69-.12,1.32-.36,1.9s-.58,1.08-1.02,1.5c-.44.42-.97.75-1.58.99-.61.24-1.28.36-2,.36s-1.4-.12-2.01-.36c-.6-.24-1.12-.57-1.56-.99-.44-.42-.77-.92-1.02-1.5-.24-.58-.36-1.21-.36-1.9s.12-1.32.36-1.91c.24-.58.58-1.09,1.02-1.52.43-.43.95-.76,1.56-1.01s1.27-.36,2.01-.36,1.39.12,2,.36,1.13.58,1.58,1.01.78.93,1.02,1.52c.24.58.36,1.22.36,1.91ZM411.41,275.36c-.43,0-.81.08-1.15.24-.34.16-.63.38-.87.65-.24.27-.43.59-.56.95s-.19.75-.19,1.15.06.79.19,1.15.32.67.56.93c.24.26.53.47.87.63s.72.24,1.15.24.8-.08,1.14-.24.64-.37.89-.63c.25-.26.44-.58.57-.93.13-.36.19-.74.19-1.15s-.07-.79-.19-1.15c-.13-.37-.32-.68-.57-.95-.25-.27-.54-.49-.89-.65-.34-.16-.73-.24-1.14-.24Z"/>
    <path class="st3" d="M418.43,282.49c0,.36-.13.67-.39.93s-.59.39-1,.39-.75-.13-1.01-.4c-.25-.26-.38-.57-.38-.92s.13-.67.4-.93.6-.39.99-.39c.43,0,.77.13,1.02.4s.37.57.37.92Z"/>
    <path class="st3" d="M421.47,282.52c0,.54-.15,1.06-.46,1.54s-.76.86-1.37,1.13c-.06.02-.12.04-.19.07-.07.02-.15.04-.22.04-.07,0-.14,0-.19-.03s-.09-.06-.1-.12c-.01-.06,0-.11.06-.15s.11-.09.18-.13c.23-.14.4-.34.53-.6s.2-.5.21-.7c-.37-.06-.66-.2-.86-.43s-.3-.49-.3-.77c0-.35.13-.64.38-.88s.58-.36.97-.36c.44,0,.78.15,1.01.44.23.29.35.61.35.95Z"/>
    <path class="st3" d="M432.76,282.91h-8.21v-13.19h2.12v11.37h6.1v1.83Z"/>
    <path class="st3" d="M436.44,279.79c0,.48.12.84.35,1.1.23.26.57.39,1.02.39.33,0,.63-.09.9-.28.27-.19.49-.4.64-.64l1.25,1.23c-.33.47-.73.83-1.2,1.09-.47.26-.98.39-1.52.39-1.16,0-2.05-.3-2.65-.89-.6-.59-.91-1.41-.91-2.46v-4.18h-1.56v-1.83h1.56v-3.66h2.12v3.66h2.79v1.83h-2.79v4.25Z"/>
    <path class="st3" d="M448.13,282.91v-.93c-.33.36-.74.63-1.24.81-.5.18-.99.27-1.47.27-.69,0-1.33-.12-1.91-.36-.59-.24-1.1-.57-1.52-.98-.43-.42-.77-.92-1.01-1.49-.24-.58-.36-1.21-.36-1.9s.12-1.32.36-1.91c.24-.58.58-1.08,1.01-1.51.43-.42.94-.76,1.52-1,.59-.24,1.22-.36,1.91-.36.51,0,.99.08,1.45.23.46.15.88.36,1.26.64v-4.71h2.12v13.19h-2.12ZM445.42,275.36c-.85,0-1.51.27-1.99.8-.48.54-.72,1.26-.72,2.18s.24,1.63.72,2.15c.48.52,1.14.78,1.99.78.78,0,1.41-.23,1.88-.68.47-.45.75-1.07.83-1.86v-.78c-.08-.79-.36-1.42-.83-1.89-.47-.47-1.1-.7-1.88-.7Z"/>
    <path class="st3" d="M453.79,282.49c0,.36-.13.67-.39.93s-.59.39-1,.39-.75-.13-1.01-.4c-.25-.26-.38-.57-.38-.92s.13-.67.4-.93.6-.39.99-.39c.43,0,.77.13,1.02.4s.37.57.37.92Z"/>
  </g>
  <rect class="st0" x="25.07" y="208.71" width="82.58" height="82.58"/>
  <polygon class="st2" points="46.05 223.1 30.62 223.1 30.62 215.29 34.62 215.29 34.62 219.1 46.05 219.1 46.05 223.1"/>
  <rect class="st2" x="30.54" y="226.19" width="15.52" height="4"/>
  <polygon class="st2" points="35.27 247.81 30.86 247.81 36.37 229.03 40.22 230.1 35.27 247.81"/>
  <polygon class="st2" points="41.75 247.81 46.16 247.81 40.65 229.03 36.8 230.1 41.75 247.81"/>
  <path class="st2" d="M63.99,284.31H31.34v-33.32h32.65v33.32ZM35.34,280.31h24.65v-25.32h-24.65v25.32Z"/>
  <rect class="st2" x="34.12" y="265.65" width="27.29" height="4"/>
  <path class="st2" d="M63.99,248.11h-14.65v-32.94h14.65v32.94ZM53.34,244.11h6.65v-24.94h-6.65v24.94Z"/>
  <polygon class="st2" points="102.25 284.31 67.28 284.31 67.28 215.29 71.28 215.29 71.28 280.31 98.25 280.31 98.25 215.29 102.25 215.29 102.25 284.31"/>
  <rect class="st2" x="82.76" y="215.29" width="4" height="67.02"/>
</svg>